<svg xmlns="http://www.w3.org/2000/svg" width="43.381" height="37.924" viewBox="0 0 43.381 37.924">
  <g id="pos_silver" transform="translate(-722 -255)">
    <path id="Path_1544" data-name="Path 1544" d="M723.295,279.387H702.929a1.325,1.325,0,0,0-1.147.662L691.6,297.687a1.325,1.325,0,0,0,0,1.325l10.183,17.637a1.325,1.325,0,0,0,1.147.662h20.366a1.325,1.325,0,0,0,1.147-.662l10.183-17.637a1.325,1.325,0,0,0,0-1.325l-10.183-17.637A1.325,1.325,0,0,0,723.295,279.387Z" transform="translate(30.579 -24.387)" fill="#ffd45d"/>
    <path id="Path_1545" data-name="Path 1545" d="M1039.368,503.184h-8.683l-6.5,11.265,4.342,7.52a1.323,1.323,0,0,0,.485-.485l10.183-17.637A1.324,1.324,0,0,0,1039.368,503.184Z" transform="translate(-273.987 -229.222)" fill="#718096"/>
    <path id="Path_1546" data-name="Path 1546" d="M836.77,636.137H823.763l-4.342,7.52a1.324,1.324,0,0,0,.662.178h20.366a1.324,1.324,0,0,0,.662-.178Z" transform="translate(-86.576 -350.91)" fill="#99acba"/>
    <path id="Path_1547" data-name="Path 1547" d="M706.608,514.449l-6.5-11.265h-8.683a1.324,1.324,0,0,0,.177.662l10.183,17.637a1.325,1.325,0,0,0,.485.485Z" transform="translate(30.579 -229.222)" fill="#c5c3db"/>
    <path id="Path_1548" data-name="Path 1548" d="M706.608,289l-4.341-7.52a1.324,1.324,0,0,0-.485.485L691.6,299.6a1.323,1.323,0,0,0-.177.662H700.1Z" transform="translate(30.579 -26.303)" fill="#d6d2db"/>
    <path id="Path_1549" data-name="Path 1549" d="M823.763,287.083H836.77l4.341-7.52a1.324,1.324,0,0,0-.662-.177H820.083a1.324,1.324,0,0,0-.662.177Z" transform="translate(-86.576 -24.386)" fill="#c5c3db"/>
    <path id="Path_1550" data-name="Path 1550" d="M1024.181,289l6.5,11.265h8.683a1.324,1.324,0,0,0-.177-.662l-10.183-17.637a1.323,1.323,0,0,0-.485-.485Z" transform="translate(-273.987 -26.303)" fill="#99acba"/>
    <path id="Path_1551" data-name="Path 1551" d="M813.412,370.231H800.4L793.9,381.5l6.5,11.265h13.008l6.5-11.265Z" transform="translate(-63.217 -107.534)" fill="#8c98a8"/>
    <path id="Path_1552" data-name="Path 1552" d="M849.54,352.067l.829-.619a.222.222,0,0,1,.331.279l-.47.922a.222.222,0,0,0,.07.283l.845.6a.222.222,0,0,1-.163.4l-1.022-.162a.222.222,0,0,0-.247.154l-.307.988a.222.222,0,0,1-.432-.031l-.161-1.022a.222.222,0,0,0-.223-.188l-1.035.014a.222.222,0,0,1-.1-.421l.922-.469a.222.222,0,0,0,.11-.27l-.333-.98a.222.222,0,0,1,.368-.229l.731.732A.223.223,0,0,0,849.54,352.067Z" transform="translate(-112.119 -90.159)" fill="#fff"/>
    <text id="_2" data-name="2" transform="translate(740 278)" fill="#fff" font-size="13" font-family="Roboto-Bold, Roboto" font-weight="700"><tspan x="0" y="0">2</tspan></text>
  </g>
</svg>
