<svg xmlns="http://www.w3.org/2000/svg" width="43.381" height="37.924" viewBox="0 0 43.381 37.924">
  <g id="pos_bronze" transform="translate(-722 -320)">
    <g id="Group_1687" data-name="Group 1687" transform="translate(722 320)">
      <path id="Path_1553" data-name="Path 1553" d="M1339.295,279.387h-20.366a1.325,1.325,0,0,0-1.147.662L1307.6,297.687a1.325,1.325,0,0,0,0,1.325l10.183,17.637a1.325,1.325,0,0,0,1.147.662h20.366a1.325,1.325,0,0,0,1.147-.662l10.183-17.637a1.325,1.325,0,0,0,0-1.325l-10.183-17.637A1.325,1.325,0,0,0,1339.295,279.387Z" transform="translate(-1307.421 -279.387)" fill="#ffd45d"/>
      <path id="Path_1554" data-name="Path 1554" d="M1655.368,503.184h-8.683l-6.5,11.265,4.342,7.52a1.324,1.324,0,0,0,.485-.485l10.183-17.637A1.324,1.324,0,0,0,1655.368,503.184Z" transform="translate(-1611.987 -484.222)" fill="#ab3803"/>
      <path id="Path_1555" data-name="Path 1555" d="M1452.77,636.137h-13.008l-4.342,7.52a1.324,1.324,0,0,0,.662.177h20.366a1.324,1.324,0,0,0,.662-.177Z" transform="translate(-1424.576 -605.91)" fill="#ea6936"/>
      <path id="Path_1556" data-name="Path 1556" d="M1322.608,514.449l-6.5-11.265h-8.683a1.325,1.325,0,0,0,.177.662l10.183,17.637a1.326,1.326,0,0,0,.485.485Z" transform="translate(-1307.421 -484.222)" fill="#ea9370"/>
      <path id="Path_1557" data-name="Path 1557" d="M1322.608,289l-4.341-7.52a1.324,1.324,0,0,0-.485.485L1307.6,299.6a1.324,1.324,0,0,0-.177.662h8.683Z" transform="translate(-1307.421 -281.303)" fill="#eabaa6"/>
      <path id="Path_1558" data-name="Path 1558" d="M1439.762,287.083h13.008l4.341-7.52a1.324,1.324,0,0,0-.662-.178h-20.366a1.324,1.324,0,0,0-.662.178Z" transform="translate(-1424.576 -279.386)" fill="#ea9370"/>
      <path id="Path_1559" data-name="Path 1559" d="M1640.181,289l6.5,11.265h8.683a1.324,1.324,0,0,0-.177-.662l-10.183-17.637a1.324,1.324,0,0,0-.485-.485Z" transform="translate(-1611.987 -281.303)" fill="#ea6936"/>
      <path id="Path_1560" data-name="Path 1560" d="M1429.411,370.231H1416.4l-6.5,11.265,6.5,11.265h13.008l6.5-11.265Z" transform="translate(-1401.217 -362.534)" fill="#d44604"/>
      <path id="Path_1561" data-name="Path 1561" d="M1465.54,352.067l.829-.619a.222.222,0,0,1,.331.279l-.47.922a.222.222,0,0,0,.07.283l.845.6a.222.222,0,0,1-.163.4l-1.022-.162a.222.222,0,0,0-.247.154l-.307.988a.222.222,0,0,1-.432-.031l-.161-1.022a.223.223,0,0,0-.223-.188l-1.035.014a.222.222,0,0,1-.1-.421l.922-.469a.222.222,0,0,0,.11-.27l-.333-.98a.222.222,0,0,1,.368-.229l.731.732A.223.223,0,0,0,1465.54,352.067Z" transform="translate(-1450.119 -345.159)" fill="#fff"/>
    </g>
    <text id="_3" data-name="3" transform="translate(740 343)" fill="#fff" font-size="13" font-family="Roboto-Bold, Roboto" font-weight="700"><tspan x="0" y="0">3</tspan></text>
  </g>
</svg>
